<svg width="633pt" height="317pt" viewBox="0 0 633 317" xmlns="http://www.w3.org/2000/svg"><g id="#ffffffff" fill="#fff"><path opacity="1.00" d="M 0.00 0.00 L 633.00 0.00 L 633.00 317.00 L 222.86 317.00 C 222.85 308.71 222.85 300.43 222.86 292.15 C 220.79 292.15 218.71 292.17 216.64 292.19 C 216.67 300.46 216.66 308.73 216.64 317.00 L 0.00 317.00 L 0.00 0.00 M 200.71 2.60 C 200.96 40.72 200.72 78.84 200.83 116.96 C 200.89 118.59 201.00 120.23 201.15 121.87 C 201.03 122.01 200.79 122.31 200.68 122.45 C 200.84 143.19 200.86 163.94 200.67 184.68 C 275.02 184.95 349.37 184.75 423.72 184.78 C 423.44 145.99 423.99 107.19 423.45 68.41 C 423.55 68.27 423.76 68.01 423.86 67.88 C 423.54 64.92 423.50 61.94 423.54 58.97 C 423.64 40.16 423.43 21.35 423.65 2.54 C 349.34 2.61 275.02 2.48 200.71 2.60 M 230.42 226.92 C 230.38 236.51 230.27 246.11 230.45 255.70 C 230.25 258.25 232.84 259.77 235.14 259.56 C 247.66 259.59 260.18 259.62 272.70 259.55 C 275.24 259.70 277.44 257.58 277.34 255.03 C 277.67 248.29 276.92 241.56 277.20 234.82 C 271.50 235.03 265.21 233.76 260.11 237.00 C 255.62 240.22 255.34 246.49 256.42 251.43 C 261.23 251.44 266.04 251.39 270.84 251.48 C 270.83 252.25 270.80 253.79 270.78 254.56 C 259.57 254.55 248.35 254.53 237.14 254.57 C 236.97 245.31 237.54 236.02 236.80 226.78 C 234.67 226.84 232.55 226.87 230.42 226.92 M 264.79 225.68 C 264.77 227.68 264.75 229.68 264.73 231.68 C 266.92 231.76 269.11 231.77 271.31 231.75 C 271.22 229.69 271.12 227.64 270.88 225.59 C 268.85 225.61 266.82 225.64 264.79 225.68 M 386.74 226.85 C 386.78 236.24 386.70 245.64 386.78 255.03 C 386.43 257.60 388.87 259.74 391.34 259.55 C 417.23 259.63 443.12 259.57 469.01 259.58 C 471.34 259.93 474.26 258.73 474.32 256.04 C 474.54 246.33 474.39 236.60 474.37 226.88 C 472.12 226.86 469.89 226.84 467.65 226.80 C 467.61 236.05 467.64 245.30 467.64 254.56 C 462.50 254.55 457.36 254.55 452.23 254.56 C 452.21 250.39 452.23 246.21 452.24 242.03 C 449.93 241.94 447.61 241.83 445.32 242.14 C 445.09 246.27 445.29 250.41 445.30 254.54 C 441.63 254.54 437.97 254.53 434.31 254.59 C 433.99 249.81 432.57 244.43 427.94 242.07 C 419.27 237.59 409.15 240.21 400.24 242.50 C 400.20 244.35 400.18 246.20 400.18 248.05 C 407.54 246.08 415.42 243.79 422.98 245.98 C 426.56 247.23 427.33 251.12 427.47 254.46 C 416.21 254.65 404.94 254.52 393.68 254.52 C 393.76 245.30 393.77 236.08 393.68 226.87 C 391.36 226.86 389.05 226.86 386.74 226.85 M 479.55 226.82 C 479.43 237.75 479.55 248.68 479.49 259.61 C 481.81 259.59 484.14 259.58 486.47 259.58 C 486.40 248.66 486.50 237.75 486.42 226.84 C 484.12 226.85 481.83 226.84 479.55 226.82 M 172.94 231.61 C 161.22 236.13 149.33 240.23 137.62 244.78 C 137.45 245.58 137.10 247.17 136.93 247.97 C 147.04 245.87 157.81 244.30 167.86 247.54 C 171.95 248.71 175.02 252.14 175.98 256.25 C 163.08 256.33 150.18 256.28 137.29 256.27 C 137.27 257.38 137.26 258.51 137.25 259.63 C 163.32 259.58 189.40 259.90 215.47 259.46 C 215.45 254.74 215.37 250.01 215.54 245.29 C 214.30 245.24 213.07 245.19 211.84 245.16 C 211.85 248.85 211.85 252.55 211.87 256.24 C 206.13 256.31 200.39 256.30 194.65 256.26 C 194.63 252.40 194.65 248.55 194.54 244.69 C 193.75 244.84 192.15 245.12 191.36 245.26 C 191.35 248.94 191.35 252.61 191.37 256.29 C 187.36 256.30 183.36 256.32 179.36 256.22 C 178.66 252.82 177.57 249.18 174.62 247.05 C 168.78 242.58 161.08 242.36 154.05 242.32 C 163.73 238.46 173.68 235.25 183.15 230.89 C 179.75 230.72 176.17 230.28 172.94 231.61 M 450.44 232.68 C 450.42 234.67 450.40 236.67 450.40 238.66 C 452.52 238.66 454.64 238.66 456.77 238.66 C 456.74 236.66 456.72 234.66 456.68 232.66 C 454.60 232.68 452.52 232.68 450.44 232.68 M 440.47 232.68 C 440.45 234.66 440.43 236.64 440.43 238.63 C 442.49 238.66 444.56 238.67 446.64 238.69 C 446.64 236.68 446.64 234.68 446.63 232.68 C 444.57 232.68 442.52 232.68 440.47 232.68 M 191.43 238.41 C 191.42 239.68 191.41 240.95 191.41 242.23 C 192.46 242.21 193.50 242.20 194.55 242.19 C 194.58 240.92 194.61 239.65 194.63 238.39 C 193.56 238.39 192.49 238.40 191.43 238.41 M 309.55 242.86 C 309.06 248.40 310.97 254.87 316.44 257.29 C 327.37 262.38 339.69 259.03 351.25 259.30 C 351.37 256.13 350.89 252.80 351.95 249.75 C 352.88 247.15 355.93 247.27 358.20 247.21 C 358.13 251.33 358.14 255.46 358.18 259.59 C 360.42 259.59 362.66 259.59 364.91 259.60 C 365.14 253.70 365.22 247.78 364.84 241.89 C 359.21 241.98 353.09 240.98 347.99 243.97 C 344.49 246.27 344.05 250.71 344.31 254.52 C 337.39 254.49 330.39 255.38 323.53 254.30 C 318.24 253.03 316.03 247.69 315.65 242.77 C 313.61 242.82 311.58 242.85 309.55 242.86 M 373.18 260.90 C 369.37 265.53 362.53 264.08 357.27 263.90 C 357.28 265.55 357.30 267.21 357.33 268.87 C 362.48 269.68 367.89 269.97 372.94 268.43 C 376.68 267.31 380.04 264.10 380.23 260.02 C 380.42 253.97 380.23 247.91 380.28 241.86 C 378.01 241.85 375.74 241.83 373.48 241.80 C 373.22 248.16 373.86 254.58 373.18 260.90 M 285.54 245.62 C 281.46 248.99 282.12 254.72 282.43 259.42 C 287.56 259.41 292.70 259.26 297.83 259.58 C 296.81 261.24 295.86 263.21 293.84 263.82 C 289.35 265.50 284.41 264.63 279.74 264.54 C 279.72 265.57 279.68 267.63 279.66 268.66 C 284.01 269.89 288.62 269.75 293.08 269.37 C 297.62 268.80 302.67 266.02 303.25 261.03 C 303.84 255.00 303.38 248.91 303.50 242.86 C 297.52 243.05 290.67 241.83 285.54 245.62 M 211.82 262.76 C 211.81 263.92 211.80 265.08 211.79 266.25 C 213.01 266.27 214.23 266.28 215.45 266.30 C 215.45 265.08 215.45 263.86 215.45 262.65 C 214.23 262.68 213.03 262.71 211.82 262.76 M 344.78 263.45 C 344.78 265.45 344.78 267.46 344.79 269.46 C 346.95 269.48 349.11 269.48 351.28 269.47 C 351.28 267.46 351.28 265.45 351.28 263.44 C 349.11 263.41 346.94 263.41 344.78 263.45 M 427.57 263.40 C 427.57 265.43 427.56 267.46 427.56 269.50 C 429.62 269.50 431.68 269.49 433.75 269.50 C 433.75 267.45 433.74 265.41 433.72 263.38 C 431.67 263.38 429.62 263.39 427.57 263.40 M 334.85 263.44 C 334.87 265.45 334.87 267.46 334.87 269.47 C 337.01 269.48 339.15 269.48 341.30 269.48 C 341.27 267.45 341.26 265.43 341.27 263.41 C 339.13 263.40 336.99 263.40 334.85 263.44 M 349.43 282.41 C 347.12 284.20 346.94 287.36 346.79 290.04 C 346.77 298.56 346.85 307.08 346.77 315.59 C 348.93 315.59 351.09 315.60 353.26 315.59 C 353.23 309.28 353.19 302.97 353.28 296.66 C 355.07 296.70 356.88 296.74 358.68 296.78 C 358.68 295.23 358.68 293.69 358.69 292.15 C 356.85 292.16 355.02 292.17 353.19 292.19 C 353.42 289.98 352.59 287.00 354.97 285.69 C 356.21 285.81 357.44 286.12 358.68 286.40 C 358.71 284.63 358.76 282.88 358.81 281.12 C 355.67 280.56 352.02 280.13 349.43 282.41 M 396.26 281.18 C 396.29 292.62 395.95 304.09 396.43 315.51 C 397.15 315.59 398.58 315.75 399.30 315.82 C 399.34 315.07 399.43 313.55 399.47 312.79 C 400.31 313.72 401.13 314.63 401.97 315.57 C 405.64 316.01 410.05 316.73 412.93 313.81 C 416.17 310.05 416.59 304.65 415.84 299.94 C 415.33 295.86 412.25 291.92 407.93 291.60 C 404.60 290.91 401.72 292.97 399.33 294.99 C 399.42 290.48 399.37 285.96 399.50 281.46 C 398.41 281.36 397.34 281.27 396.26 281.18 M 470.30 281.17 C 469.25 292.61 470.19 304.17 469.82 315.65 L 470.23 315.45 C 471.14 316.07 472.18 315.63 473.22 315.55 C 473.14 311.94 473.11 308.33 473.05 304.72 L 474.64 305.76 C 477.67 308.61 480.38 311.78 483.33 314.71 C 484.57 316.15 486.69 315.50 488.34 315.85 C 484.68 311.13 480.01 307.33 476.08 302.87 C 479.20 298.82 483.66 295.98 487.14 292.22 C 485.78 292.19 484.43 292.22 483.09 292.33 C 479.56 295.25 476.41 298.63 472.72 301.38 C 473.42 294.62 472.87 287.82 473.40 281.06 C 472.36 281.09 471.32 281.13 470.30 281.17 M 149.70 284.45 C 145.20 294.85 140.74 305.26 136.09 315.59 C 138.62 315.62 141.15 315.63 143.69 315.60 C 146.68 308.71 149.64 301.79 152.64 294.90 C 155.73 301.76 158.70 308.68 161.65 315.60 C 164.14 315.62 166.62 315.61 169.10 315.58 C 164.96 305.62 160.49 295.80 156.25 285.88 C 155.41 284.24 154.86 282.16 153.10 281.26 C 151.12 280.88 150.46 283.14 149.70 284.45 M 204.08 283.63 C 204.06 285.73 204.06 287.83 204.08 289.93 C 206.15 289.98 208.23 290.01 210.31 290.06 C 210.86 287.97 211.01 285.75 210.19 283.70 C 208.23 283.11 206.11 283.90 204.08 283.63 M 272.40 283.90 C 272.33 285.88 272.29 287.87 272.27 289.86 C 274.39 289.89 276.53 289.89 278.66 289.87 C 278.64 287.88 278.60 285.89 278.54 283.91 C 276.49 283.89 274.44 283.89 272.40 283.90 M 216.91 289.70 C 219.02 289.95 221.15 289.88 223.28 289.88 C 223.28 288.03 223.29 286.18 223.31 284.34 C 221.36 284.11 219.40 283.88 217.45 283.67 C 217.05 285.65 216.60 287.67 216.91 289.70 M 170.44 286.42 C 170.48 293.28 170.45 300.14 170.44 307.00 C 170.44 309.57 170.71 312.41 172.57 314.37 C 175.39 316.80 179.31 315.73 182.68 315.80 C 182.63 314.28 182.58 312.76 182.54 311.24 C 180.47 311.24 177.27 311.81 176.90 308.98 C 176.25 304.95 176.75 300.82 176.61 296.76 C 178.48 296.73 180.35 296.71 182.22 296.67 C 182.21 295.19 182.21 293.70 182.22 292.23 C 180.36 292.18 178.50 292.16 176.65 292.13 C 176.62 290.22 176.61 288.31 176.60 286.40 C 174.54 286.40 172.49 286.41 170.44 286.42 M 186.59 286.43 C 186.70 294.31 186.51 302.18 186.64 310.06 C 186.63 312.32 188.26 314.30 190.11 315.44 C 192.84 316.32 195.77 315.79 198.59 315.84 C 198.57 314.15 198.55 312.46 198.53 310.77 C 196.94 311.00 195.35 311.20 193.75 311.37 C 192.15 306.65 192.94 301.62 192.77 296.74 C 194.65 296.73 196.53 296.72 198.41 296.71 C 198.41 295.24 198.42 293.78 198.44 292.33 C 196.52 292.15 194.61 291.96 192.71 291.74 C 192.74 289.95 192.78 288.18 192.80 286.41 C 190.73 286.41 188.66 286.42 186.59 286.43 M 363.75 293.37 C 363.88 295.08 364.01 296.80 364.15 298.52 C 367.23 296.70 371.01 295.28 374.54 296.65 C 376.28 297.47 376.37 299.55 376.80 301.18 C 372.61 301.36 367.89 300.50 364.19 303.00 C 361.36 304.85 360.86 308.83 361.86 311.85 C 364.45 317.16 372.83 317.39 376.42 313.00 C 376.43 316.61 380.21 315.39 382.58 315.73 C 382.24 310.47 382.39 305.20 382.27 299.95 C 382.21 297.13 381.12 294.09 378.50 292.70 C 373.85 290.41 368.32 291.32 363.75 293.37 M 204.26 292.17 C 204.26 299.99 204.24 307.80 204.27 315.62 C 206.32 315.61 208.37 315.60 210.41 315.59 C 210.31 307.77 210.37 299.96 210.38 292.15 C 208.34 292.14 206.30 292.15 204.26 292.17 M 229.73 293.49 C 230.01 295.17 230.27 296.86 230.51 298.56 C 233.44 296.71 237.07 295.33 240.52 296.57 C 242.41 297.34 242.53 299.46 242.87 301.19 C 238.38 301.25 233.24 300.52 229.56 303.68 C 226.90 306.48 226.60 311.64 229.84 314.15 C 233.72 317.27 239.79 316.39 243.20 312.93 C 243.23 313.60 243.27 314.95 243.29 315.62 C 245.12 315.61 246.96 315.61 248.80 315.60 C 248.60 310.36 248.58 305.12 248.50 299.87 C 248.45 296.79 246.91 293.55 243.95 292.33 C 239.33 290.55 234.10 291.41 229.73 293.49 M 254.42 292.14 C 254.42 299.97 254.41 307.80 254.44 315.63 C 256.56 315.62 258.68 315.60 260.81 315.56 C 261.11 310.36 259.81 304.75 261.96 299.85 C 263.15 297.22 266.04 297.48 268.47 297.66 C 268.46 295.52 268.46 293.38 268.44 291.24 C 264.48 290.77 261.69 293.53 259.68 296.54 C 259.93 295.11 260.15 293.68 260.37 292.25 C 258.38 292.19 256.40 292.15 254.42 292.14 M 272.30 292.15 C 272.34 299.98 272.27 307.82 272.35 315.65 C 274.43 315.62 276.51 315.60 278.60 315.59 C 278.65 307.78 278.59 299.98 278.64 292.17 C 276.52 292.15 274.41 292.14 272.30 292.15 M 280.61 292.21 C 283.25 300.00 285.96 307.76 288.49 315.59 C 290.89 315.60 293.29 315.62 295.70 315.65 C 297.41 309.75 298.82 303.75 300.91 297.97 C 302.17 303.93 304.19 309.69 305.71 315.59 C 308.19 315.60 310.68 315.59 313.18 315.58 C 315.49 307.74 317.92 299.94 320.36 292.15 C 318.31 292.16 316.27 292.17 314.22 292.21 C 312.59 297.83 311.31 303.55 309.32 309.06 C 307.77 303.49 306.33 297.88 304.39 292.44 C 302.04 291.76 299.39 292.30 296.93 292.22 C 295.58 297.87 294.11 303.51 292.28 309.03 C 290.67 303.40 289.00 297.78 287.32 292.17 C 285.08 292.16 282.84 292.17 280.61 292.21 M 322.60 293.08 C 322.69 294.90 322.77 296.72 322.83 298.54 C 325.96 296.89 329.50 295.39 333.09 296.49 C 335.16 297.02 335.12 299.51 335.76 301.14 C 331.56 301.37 326.84 300.45 323.16 303.01 C 319.01 305.74 319.21 312.98 323.84 315.13 C 327.93 316.86 333.14 316.23 335.84 312.41 C 335.84 313.21 335.83 314.81 335.82 315.61 C 337.71 315.61 339.60 315.61 341.49 315.60 C 341.36 310.75 341.30 305.90 341.26 301.05 C 341.25 297.86 340.37 294.17 337.27 292.62 C 332.64 290.37 327.26 291.55 322.60 293.08 M 422.76 292.88 C 422.75 293.91 422.75 294.95 422.76 295.99 C 425.72 294.96 428.87 294.04 432.03 294.67 C 434.70 295.77 434.67 298.82 434.83 301.26 C 431.12 301.48 427.17 301.13 423.76 302.90 C 418.67 304.92 418.64 313.89 423.98 315.62 C 427.76 316.52 432.00 316.08 434.88 313.23 C 434.94 315.02 436.21 315.75 437.72 316.09 C 437.88 310.37 437.87 304.65 437.80 298.93 C 437.99 295.86 436.05 292.62 432.94 291.94 C 429.54 290.87 426.07 292.08 422.76 292.88 M 447.17 295.87 C 447.26 294.96 447.43 293.13 447.52 292.22 C 446.72 292.21 445.13 292.20 444.33 292.19 C 444.72 299.98 444.49 307.77 444.52 315.56 C 445.49 315.59 446.47 315.62 447.46 315.65 C 447.71 309.88 446.75 303.92 448.44 298.31 C 449.80 293.69 457.68 292.86 459.27 297.67 C 460.16 303.55 459.54 309.55 459.67 315.47 C 460.69 315.56 461.71 315.64 462.74 315.73 C 462.76 309.78 463.06 303.82 462.61 297.88 C 462.36 294.86 459.97 292.30 457.00 291.76 C 453.13 290.64 449.34 292.71 447.17 295.87 M 149.74 306.21 C 149.82 307.73 149.91 309.26 150.01 310.78 C 151.76 310.78 153.51 310.77 155.27 310.75 C 155.26 309.59 155.24 307.27 155.23 306.11 C 153.40 306.12 151.57 306.14 149.74 306.21 Z"/><path opacity="1.00" d="M 263.93 240.95 C 266.01 239.92 268.44 240.03 270.71 239.86 C 270.76 242.11 270.77 244.36 270.76 246.62 C 267.49 246.68 264.22 246.72 260.96 246.51 C 261.59 244.54 261.79 241.94 263.93 240.95 Z"/><path opacity="1.00" d="M 289.39 249.50 C 291.59 247.69 294.60 248.43 297.20 248.36 C 297.18 250.45 297.17 252.54 297.17 254.63 C 293.81 254.71 290.44 254.76 287.09 254.52 C 287.75 252.83 287.84 250.68 289.39 249.50 Z"/><path opacity="1.00" d="M 403.11 295.10 C 406.16 293.52 410.42 294.81 411.67 298.13 C 413.32 302.20 413.29 307.21 410.98 311.04 C 408.95 314.22 403.84 314.43 401.55 311.44 C 399.11 308.53 399.15 304.48 399.56 300.92 C 399.92 298.63 400.98 296.23 403.11 295.10 Z"/><path opacity="1.00" d="M 424.94 305.97 C 427.77 303.82 431.50 304.17 434.85 304.11 C 434.56 306.52 434.91 309.26 433.35 311.31 C 431.06 313.98 426.45 314.37 423.86 311.93 C 423.26 309.99 423.01 307.25 424.94 305.97 Z"/><path opacity="1.00" d="M 233.68 308.00 C 234.74 304.16 239.91 304.99 242.96 304.69 C 242.54 306.99 242.19 309.79 239.83 310.95 C 237.61 312.44 232.81 311.41 233.68 308.00 Z"/><path opacity="1.00" d="M 326.31 308.12 C 327.61 304.19 332.56 304.76 335.84 304.77 C 335.08 306.86 335.04 309.71 332.73 310.79 C 330.55 312.42 325.61 311.56 326.31 308.12 Z"/><path opacity="1.00" d="M 367.29 308.09 C 368.67 304.24 373.56 304.80 376.83 304.72 C 376.37 306.93 376.09 309.77 373.80 310.89 C 371.53 312.36 366.68 311.56 367.29 308.09 Z"/></g><g id="#f9b812ff" fill="#f9b812"><path opacity="1.00" d="M 200.71 2.60 C 275.02 2.48 349.34 2.61 423.65 2.54 C 423.43 21.35 423.64 40.16 423.54 58.97 C 423.50 61.94 423.54 64.92 423.86 67.88 C 417.40 67.78 410.88 67.35 404.44 68.06 C 397.99 68.92 394.09 74.49 390.15 79.03 C 383.69 86.60 377.01 93.97 370.63 101.61 C 360.76 90.38 351.29 78.78 341.50 67.49 C 338.96 64.36 334.85 62.74 330.86 63.41 C 327.43 63.62 324.85 66.19 322.73 68.63 C 313.41 79.63 303.94 90.50 294.67 101.55 C 284.49 90.26 275.08 78.29 265.00 66.91 C 260.58 61.68 251.65 62.28 247.60 67.67 C 232.17 85.78 216.59 103.77 201.15 121.87 C 201.00 120.23 200.89 118.59 200.83 116.96 C 200.72 78.84 200.96 40.72 200.71 2.60 Z"/><path opacity="1.00" d="M 470.30 281.17 C 471.32 281.13 472.36 281.09 473.40 281.06 C 472.87 287.82 473.42 294.62 472.72 301.38 C 472.65 295.38 472.66 289.37 472.87 283.38 C 472.01 282.63 471.16 281.89 470.30 281.17 Z"/><path opacity="1.00" d="M 472.67 303.90 C 473.32 304.51 473.98 305.13 474.64 305.76 L 473.05 304.72 C 473.11 308.33 473.14 311.94 473.22 315.55 C 472.18 315.63 471.14 316.07 470.23 315.45 C 470.85 315.14 472.11 314.52 472.74 314.21 C 472.71 310.77 472.68 307.34 472.67 303.90 Z"/></g><g id="#222222ff" fill="#222"><path opacity="1.00" d="M 247.60 67.67 C 251.65 62.28 260.58 61.68 265.00 66.91 C 275.08 78.29 284.49 90.26 294.67 101.55 C 303.94 90.50 313.41 79.63 322.73 68.63 C 324.85 66.19 327.43 63.62 330.86 63.41 C 334.85 62.74 338.96 64.36 341.50 67.49 C 351.29 78.78 360.76 90.38 370.63 101.61 C 377.01 93.97 383.69 86.60 390.15 79.03 C 394.09 74.49 397.99 68.92 404.44 68.06 C 410.88 67.35 417.40 67.78 423.86 67.88 C 423.76 68.01 423.55 68.27 423.45 68.41 C 409.10 85.40 394.60 102.27 380.34 119.34 C 377.83 122.45 374.13 124.93 369.97 124.58 C 365.93 124.62 362.61 121.88 360.18 118.92 C 353.33 110.43 346.10 102.27 339.12 93.90 C 337.09 91.47 335.20 88.88 332.74 86.85 C 329.61 89.00 327.53 92.26 325.08 95.08 C 318.02 103.36 310.95 111.62 303.85 119.87 C 300.95 123.71 295.77 125.59 291.12 124.12 C 285.80 122.50 283.22 117.08 279.64 113.27 C 271.78 104.45 264.51 95.13 256.51 86.45 C 249.25 95.20 241.67 103.67 234.39 112.41 C 230.82 116.73 226.80 121.67 220.82 122.33 C 214.12 122.85 207.39 122.50 200.68 122.45 C 200.79 122.31 201.03 122.01 201.15 121.87 C 216.59 103.77 232.17 85.78 247.60 67.67 Z"/><path opacity="1.00" d="M 250.22 105.38 C 254.38 105.43 258.54 105.44 262.69 105.38 C 262.69 109.41 262.69 113.44 262.54 117.46 C 258.50 117.37 254.47 117.36 250.44 117.49 C 250.25 113.46 250.21 109.42 250.22 105.38 Z"/><path opacity="1.00" d="M 230.42 226.92 C 232.55 226.87 234.67 226.84 236.80 226.78 C 237.54 236.02 236.97 245.31 237.14 254.57 C 248.35 254.53 259.57 254.55 270.78 254.56 C 270.80 253.79 270.83 252.25 270.84 251.48 C 266.04 251.39 261.23 251.44 256.42 251.43 C 255.34 246.49 255.62 240.22 260.11 237.00 C 265.21 233.76 271.50 235.03 277.20 234.82 C 276.92 241.56 277.67 248.29 277.34 255.03 C 277.44 257.58 275.24 259.70 272.70 259.55 C 260.18 259.62 247.66 259.59 235.14 259.56 C 232.84 259.77 230.25 258.25 230.45 255.70 C 230.27 246.11 230.38 236.51 230.42 226.92 M 263.93 240.95 C 261.79 241.94 261.59 244.54 260.96 246.51 C 264.22 246.72 267.49 246.68 270.76 246.62 C 270.77 244.36 270.76 242.11 270.71 239.86 C 268.44 240.03 266.01 239.92 263.93 240.95 Z"/><path opacity="1.00" d="M 264.79 225.68 C 266.82 225.64 268.85 225.61 270.88 225.59 C 271.12 227.64 271.22 229.69 271.31 231.75 C 269.11 231.77 266.92 231.76 264.73 231.68 C 264.75 229.68 264.77 227.68 264.79 225.68 Z"/><path opacity="1.00" d="M 386.74 226.85 C 389.05 226.86 391.36 226.86 393.68 226.87 C 393.77 236.08 393.76 245.30 393.68 254.52 C 404.94 254.52 416.21 254.65 427.47 254.46 C 427.33 251.12 426.56 247.23 422.98 245.98 C 415.42 243.79 407.54 246.08 400.18 248.05 C 400.18 246.20 400.20 244.35 400.24 242.50 C 409.15 240.21 419.27 237.59 427.94 242.07 C 432.57 244.43 433.99 249.81 434.31 254.59 C 437.97 254.53 441.63 254.54 445.30 254.54 C 445.29 250.41 445.09 246.27 445.32 242.14 C 447.61 241.83 449.93 241.94 452.24 242.03 C 452.23 246.21 452.21 250.39 452.23 254.56 C 457.36 254.55 462.50 254.55 467.64 254.56 C 467.64 245.30 467.61 236.05 467.65 226.80 C 469.89 226.84 472.12 226.86 474.37 226.88 C 474.39 236.60 474.54 246.33 474.32 256.04 C 474.26 258.73 471.34 259.93 469.01 259.58 C 443.12 259.57 417.23 259.63 391.34 259.55 C 388.87 259.74 386.43 257.60 386.78 255.03 C 386.70 245.64 386.78 236.24 386.74 226.85 Z"/><path opacity="1.00" d="M 479.55 226.82 C 481.83 226.84 484.12 226.85 486.42 226.84 C 486.50 237.75 486.40 248.66 486.47 259.58 C 484.14 259.58 481.81 259.59 479.49 259.61 C 479.55 248.68 479.43 237.75 479.55 226.82 Z"/><path opacity="1.00" d="M 450.44 232.68 C 452.52 232.68 454.60 232.68 456.68 232.66 C 456.72 234.66 456.74 236.66 456.77 238.66 C 454.64 238.66 452.52 238.66 450.40 238.66 C 450.40 236.67 450.42 234.67 450.44 232.68 Z"/><path opacity="1.00" d="M 440.47 232.68 C 442.52 232.68 444.57 232.68 446.63 232.68 C 446.64 234.68 446.64 236.68 446.64 238.69 C 444.56 238.67 442.49 238.66 440.43 238.63 C 440.43 236.64 440.45 234.66 440.47 232.68 Z"/><path opacity="1.00" d="M 309.55 242.86 C 311.58 242.85 313.61 242.82 315.65 242.77 C 316.03 247.69 318.24 253.03 323.53 254.30 C 330.39 255.38 337.39 254.49 344.31 254.52 C 344.05 250.71 344.49 246.27 347.99 243.97 C 353.09 240.98 359.21 241.98 364.84 241.89 C 365.22 247.78 365.14 253.70 364.91 259.60 C 362.66 259.59 360.42 259.59 358.18 259.59 C 358.14 255.46 358.13 251.33 358.20 247.21 C 355.93 247.27 352.88 247.15 351.95 249.75 C 350.89 252.80 351.37 256.13 351.25 259.30 C 339.69 259.03 327.37 262.38 316.44 257.29 C 310.97 254.87 309.06 248.40 309.55 242.86 Z"/><path opacity="1.00" d="M 373.18 260.90 C 373.86 254.58 373.22 248.16 373.48 241.80 C 375.74 241.83 378.01 241.85 380.28 241.86 C 380.23 247.91 380.42 253.97 380.23 260.02 C 380.04 264.10 376.68 267.31 372.94 268.43 C 367.89 269.97 362.48 269.68 357.33 268.87 C 357.30 267.21 357.28 265.55 357.27 263.90 C 362.53 264.08 369.37 265.53 373.18 260.90 Z"/><path opacity="1.00" d="M 285.54 245.62 C 290.67 241.83 297.52 243.05 303.50 242.86 C 303.38 248.91 303.84 255.00 303.25 261.03 C 302.67 266.02 297.62 268.80 293.08 269.37 C 288.62 269.75 284.01 269.89 279.66 268.66 C 279.68 267.63 279.72 265.57 279.74 264.54 C 284.41 264.63 289.35 265.50 293.84 263.82 C 295.86 263.21 296.81 261.24 297.83 259.58 C 292.70 259.26 287.56 259.41 282.43 259.42 C 282.12 254.72 281.46 248.99 285.54 245.62 M 289.39 249.50 C 287.84 250.68 287.75 252.83 287.09 254.52 C 290.44 254.76 293.81 254.71 297.17 254.63 C 297.17 252.54 297.18 250.45 297.20 248.36 C 294.60 248.43 291.59 247.69 289.39 249.50 Z"/><path opacity="1.00" d="M 344.78 263.45 C 346.94 263.41 349.11 263.41 351.28 263.44 C 351.28 265.45 351.28 267.46 351.28 269.47 C 349.11 269.48 346.95 269.48 344.79 269.46 C 344.78 267.46 344.78 265.45 344.78 263.45 Z"/><path opacity="1.00" d="M 427.57 263.40 C 429.62 263.39 431.67 263.38 433.72 263.38 C 433.74 265.41 433.75 267.45 433.75 269.50 C 431.68 269.49 429.62 269.50 427.56 269.50 C 427.56 267.46 427.57 265.43 427.57 263.40 Z"/><path opacity="1.00" d="M 334.85 263.44 C 336.99 263.40 339.13 263.40 341.27 263.41 C 341.26 265.43 341.27 267.45 341.30 269.48 C 339.15 269.48 337.01 269.48 334.87 269.47 C 334.87 267.46 334.87 265.45 334.85 263.44 Z"/><path opacity="1.00" d="M 349.43 282.41 C 352.02 280.13 355.67 280.56 358.81 281.12 C 358.76 282.88 358.71 284.63 358.68 286.40 C 357.44 286.12 356.21 285.81 354.97 285.69 C 352.59 287.00 353.42 289.98 353.19 292.19 C 355.02 292.17 356.85 292.16 358.69 292.15 C 358.68 293.69 358.68 295.23 358.68 296.78 C 356.88 296.74 355.07 296.70 353.28 296.66 C 353.19 302.97 353.23 309.28 353.26 315.59 C 351.09 315.60 348.93 315.59 346.77 315.59 C 346.85 307.08 346.77 298.56 346.79 290.04 C 346.94 287.36 347.12 284.20 349.43 282.41 Z"/><path opacity="1.00" d="M 149.70 284.45 C 150.46 283.14 151.12 280.88 153.10 281.26 C 154.86 282.16 155.41 284.24 156.25 285.88 C 160.49 295.80 164.96 305.62 169.10 315.58 C 166.62 315.61 164.14 315.62 161.65 315.60 C 158.70 308.68 155.73 301.76 152.64 294.90 C 149.64 301.79 146.68 308.71 143.69 315.60 C 141.15 315.63 138.62 315.62 136.09 315.59 C 140.74 305.26 145.20 294.85 149.70 284.45 Z"/><path opacity="1.00" d="M 272.40 283.90 C 274.44 283.89 276.49 283.89 278.54 283.91 C 278.60 285.89 278.64 287.88 278.66 289.87 C 276.53 289.89 274.39 289.89 272.27 289.86 C 272.29 287.87 272.33 285.88 272.40 283.90 Z"/><path opacity="1.00" d="M 216.91 289.70 C 216.60 287.67 217.05 285.65 217.45 283.67 C 219.40 283.88 221.36 284.11 223.31 284.34 C 223.29 286.18 223.28 288.03 223.28 289.88 C 221.15 289.88 219.02 289.95 216.91 289.70 Z"/><path opacity="1.00" d="M 204.78 287.03 C 204.50 284.61 207.25 283.79 209.05 284.82 C 210.95 285.68 210.55 289.70 208.03 289.25 C 206.55 289.52 204.39 288.99 204.78 287.03 Z"/><path opacity="1.00" d="M 170.44 286.42 C 172.49 286.41 174.54 286.40 176.60 286.40 C 176.61 288.31 176.62 290.22 176.65 292.13 C 178.50 292.16 180.36 292.18 182.22 292.23 C 182.21 293.70 182.21 295.19 182.22 296.67 C 180.35 296.71 178.48 296.73 176.61 296.76 C 176.75 300.82 176.25 304.95 176.90 308.98 C 177.27 311.81 180.47 311.24 182.54 311.24 C 182.58 312.76 182.63 314.28 182.68 315.80 C 179.31 315.73 175.39 316.80 172.57 314.37 C 170.71 312.41 170.44 309.57 170.44 307.00 C 170.45 300.14 170.48 293.28 170.44 286.42 Z"/><path opacity="1.00" d="M 186.59 286.43 C 188.66 286.42 190.73 286.41 192.80 286.41 C 192.78 288.18 192.74 289.95 192.71 291.74 C 194.61 291.96 196.52 292.15 198.44 292.33 C 198.42 293.78 198.41 295.24 198.41 296.71 C 196.53 296.72 194.65 296.73 192.77 296.74 C 192.94 301.62 192.15 306.65 193.75 311.37 C 195.35 311.20 196.94 311.00 198.53 310.77 C 198.55 312.46 198.57 314.15 198.59 315.84 C 195.77 315.79 192.84 316.32 190.11 315.44 C 188.26 314.30 186.63 312.32 186.64 310.06 C 186.51 302.18 186.70 294.31 186.59 286.43 Z"/><path opacity="1.00" d="M 363.75 293.37 C 368.32 291.32 373.85 290.41 378.50 292.70 C 381.12 294.09 382.21 297.13 382.27 299.95 C 382.39 305.20 382.24 310.47 382.58 315.73 C 380.21 315.39 376.43 316.61 376.42 313.00 C 372.83 317.39 364.45 317.16 361.86 311.85 C 360.86 308.83 361.36 304.85 364.19 303.00 C 367.89 300.50 372.61 301.36 376.80 301.18 C 376.37 299.55 376.28 297.47 374.54 296.65 C 371.01 295.28 367.23 296.70 364.15 298.52 C 364.01 296.80 363.88 295.08 363.75 293.37 M 367.29 308.09 C 366.68 311.56 371.53 312.36 373.80 310.89 C 376.09 309.77 376.37 306.93 376.83 304.72 C 373.56 304.80 368.67 304.24 367.29 308.09 Z"/><path opacity="1.00" d="M 204.26 292.17 C 206.30 292.15 208.34 292.14 210.38 292.15 C 210.37 299.96 210.31 307.77 210.41 315.59 C 208.37 315.60 206.32 315.61 204.27 315.62 C 204.24 307.80 204.26 299.99 204.26 292.17 Z"/><path opacity="1.00" d="M 216.64 292.19 C 218.71 292.17 220.79 292.15 222.86 292.15 C 222.85 300.43 222.85 308.71 222.86 317.00 L 216.64 317.00 C 216.66 308.73 216.67 300.46 216.64 292.19 Z"/><path opacity="1.00" d="M 229.73 293.49 C 234.10 291.41 239.33 290.55 243.95 292.33 C 246.91 293.55 248.45 296.79 248.50 299.87 C 248.58 305.12 248.60 310.36 248.80 315.60 C 246.96 315.61 245.12 315.61 243.29 315.62 C 243.27 314.95 243.23 313.60 243.20 312.93 C 239.79 316.39 233.72 317.27 229.84 314.15 C 226.60 311.64 226.90 306.48 229.56 303.68 C 233.24 300.52 238.38 301.25 242.87 301.19 C 242.53 299.46 242.41 297.34 240.52 296.57 C 237.07 295.33 233.44 296.71 230.51 298.56 C 230.27 296.86 230.01 295.17 229.73 293.49 M 233.68 308.00 C 232.81 311.41 237.61 312.44 239.83 310.95 C 242.19 309.79 242.54 306.99 242.96 304.69 C 239.91 304.99 234.74 304.16 233.68 308.00 Z"/><path opacity="1.00" d="M 254.42 292.14 C 256.40 292.15 258.38 292.19 260.37 292.25 C 260.15 293.68 259.93 295.11 259.68 296.54 C 261.69 293.53 264.48 290.77 268.44 291.24 C 268.46 293.38 268.46 295.52 268.47 297.66 C 266.04 297.48 263.15 297.22 261.96 299.85 C 259.81 304.75 261.11 310.36 260.81 315.56 C 258.68 315.60 256.56 315.62 254.44 315.63 C 254.41 307.80 254.42 299.97 254.42 292.14 Z"/><path opacity="1.00" d="M 272.30 292.15 C 274.41 292.14 276.52 292.15 278.64 292.17 C 278.59 299.98 278.65 307.78 278.60 315.59 C 276.51 315.60 274.43 315.62 272.35 315.65 C 272.27 307.82 272.34 299.98 272.30 292.15 Z"/><path opacity="1.00" d="M 280.61 292.21 C 282.84 292.17 285.08 292.16 287.32 292.17 C 289.00 297.78 290.67 303.40 292.28 309.03 C 294.11 303.51 295.58 297.87 296.93 292.22 C 299.39 292.30 302.04 291.76 304.39 292.44 C 306.33 297.88 307.77 303.49 309.32 309.06 C 311.31 303.55 312.59 297.83 314.22 292.21 C 316.27 292.17 318.31 292.16 320.36 292.15 C 317.92 299.94 315.49 307.74 313.18 315.58 C 310.68 315.59 308.19 315.60 305.71 315.59 C 304.19 309.69 302.17 303.93 300.91 297.97 C 298.82 303.75 297.41 309.75 295.70 315.65 C 293.29 315.62 290.89 315.60 288.49 315.59 C 285.96 307.76 283.25 300.00 280.61 292.21 Z"/><path opacity="1.00" d="M 322.60 293.08 C 327.26 291.55 332.64 290.37 337.27 292.62 C 340.37 294.17 341.25 297.86 341.26 301.05 C 341.30 305.90 341.36 310.75 341.49 315.60 C 339.60 315.61 337.71 315.61 335.82 315.61 C 335.83 314.81 335.84 313.21 335.84 312.41 C 333.14 316.23 327.93 316.86 323.84 315.13 C 319.21 312.98 319.01 305.74 323.16 303.01 C 326.84 300.45 331.56 301.37 335.76 301.14 C 335.12 299.51 335.16 297.02 333.09 296.49 C 329.50 295.39 325.96 296.89 322.83 298.54 C 322.77 296.72 322.69 294.90 322.60 293.08 M 326.31 308.12 C 325.61 311.56 330.55 312.42 332.73 310.79 C 335.04 309.71 335.08 306.86 335.84 304.77 C 332.56 304.76 327.61 304.19 326.31 308.12 Z"/><path opacity="1.00" d="M 149.74 306.21 C 151.57 306.14 153.40 306.12 155.23 306.11 C 155.24 307.27 155.26 309.59 155.27 310.75 C 153.51 310.77 151.76 310.78 150.01 310.78 C 149.91 309.26 149.82 307.73 149.74 306.21 Z"/></g><g id="#e6401aff" fill="#e6401a"><path opacity="1.00" d="M 380.34 119.34 C 394.60 102.27 409.10 85.40 423.45 68.41 C 423.99 107.19 423.44 145.99 423.72 184.78 C 349.37 184.75 275.02 184.95 200.67 184.68 C 200.86 163.94 200.84 143.19 200.68 122.45 C 207.39 122.50 214.12 122.85 220.82 122.33 C 226.80 121.67 230.82 116.73 234.39 112.41 C 241.67 103.67 249.25 95.20 256.51 86.45 C 264.51 95.13 271.78 104.45 279.64 113.27 C 283.22 117.08 285.80 122.50 291.12 124.12 C 295.77 125.59 300.95 123.71 303.85 119.87 C 310.95 111.62 318.02 103.36 325.08 95.08 C 327.53 92.26 329.61 89.00 332.74 86.85 C 335.20 88.88 337.09 91.47 339.12 93.90 C 346.10 102.27 353.33 110.43 360.18 118.92 C 362.61 121.88 365.93 124.62 369.97 124.58 C 374.13 124.93 377.83 122.45 380.34 119.34 M 250.22 105.38 C 250.21 109.42 250.25 113.46 250.44 117.49 C 254.47 117.36 258.50 117.37 262.54 117.46 C 262.69 113.44 262.69 109.41 262.69 105.38 C 258.54 105.44 254.38 105.43 250.22 105.38 Z"/><path opacity="1.00" d="M 172.94 231.61 C 176.17 230.28 179.75 230.72 183.15 230.89 C 173.68 235.25 163.73 238.46 154.05 242.32 C 161.08 242.36 168.78 242.58 174.62 247.05 C 177.57 249.18 178.66 252.82 179.36 256.22 C 183.36 256.32 187.36 256.30 191.37 256.29 C 191.35 252.61 191.35 248.94 191.36 245.26 C 192.15 245.12 193.75 244.84 194.54 244.69 C 194.65 248.55 194.63 252.40 194.65 256.26 C 200.39 256.30 206.13 256.31 211.87 256.24 C 211.85 252.55 211.85 248.85 211.84 245.16 C 213.07 245.19 214.30 245.24 215.54 245.29 C 215.37 250.01 215.45 254.74 215.47 259.46 C 189.40 259.90 163.32 259.58 137.25 259.63 C 137.26 258.51 137.27 257.38 137.29 256.27 C 150.18 256.28 163.08 256.33 175.98 256.25 C 175.02 252.14 171.95 248.71 167.86 247.54 C 157.81 244.30 147.04 245.87 136.93 247.97 C 137.10 247.17 137.45 245.58 137.62 244.78 C 149.33 240.23 161.22 236.13 172.94 231.61 Z"/><path opacity="1.00" d="M 191.43 238.41 C 192.49 238.40 193.56 238.39 194.63 238.39 C 194.61 239.65 194.58 240.92 194.55 242.19 C 193.50 242.20 192.46 242.21 191.41 242.23 C 191.41 240.95 191.42 239.68 191.43 238.41 Z"/><path opacity="1.00" d="M 211.82 262.76 C 213.03 262.71 214.23 262.68 215.45 262.65 C 215.45 263.86 215.45 265.08 215.45 266.30 C 214.23 266.28 213.01 266.27 211.79 266.25 C 211.80 265.08 211.81 263.92 211.82 262.76 Z"/><path opacity="1.00" d="M 396.26 281.18 C 397.34 281.27 398.41 281.36 399.50 281.46 C 399.37 285.96 399.42 290.48 399.33 294.99 C 401.72 292.97 404.60 290.91 407.93 291.60 C 412.25 291.92 415.33 295.86 415.84 299.94 C 416.59 304.65 416.17 310.05 412.93 313.81 C 410.05 316.73 405.64 316.01 401.97 315.57 C 401.13 314.63 400.31 313.72 399.47 312.79 C 399.43 313.55 399.34 315.07 399.30 315.82 C 398.58 315.75 397.15 315.59 396.43 315.51 C 395.95 304.09 396.29 292.62 396.26 281.18 M 403.11 295.10 C 400.98 296.23 399.92 298.63 399.56 300.92 C 399.15 304.48 399.11 308.53 401.55 311.44 C 403.84 314.43 408.95 314.22 410.98 311.04 C 413.29 307.21 413.32 302.20 411.67 298.13 C 410.42 294.81 406.16 293.52 403.11 295.10 Z"/><path opacity="1.00" d="M 470.30 281.17 C 471.16 281.89 472.01 282.63 472.87 283.38 C 472.66 289.37 472.65 295.38 472.72 301.38 C 476.41 298.63 479.56 295.25 483.09 292.33 C 484.43 292.22 485.78 292.19 487.14 292.22 C 483.66 295.98 479.20 298.82 476.08 302.87 C 480.01 307.33 484.68 311.13 488.34 315.85 C 486.69 315.50 484.57 316.15 483.33 314.71 C 480.38 311.78 477.67 308.61 474.64 305.76 C 473.98 305.13 473.32 304.51 472.67 303.90 C 472.68 307.34 472.71 310.77 472.74 314.21 C 472.11 314.52 470.85 315.14 470.23 315.45 L 469.82 315.65 C 470.19 304.17 469.25 292.61 470.30 281.17 Z"/><path opacity="1.00" d="M 204.08 283.63 C 206.11 283.90 208.23 283.11 210.19 283.70 C 211.01 285.75 210.86 287.97 210.31 290.06 C 208.23 290.01 206.15 289.98 204.08 289.93 C 204.06 287.83 204.06 285.73 204.08 283.63 M 204.78 287.03 C 204.39 288.99 206.55 289.52 208.03 289.25 C 210.55 289.70 210.95 285.68 209.05 284.82 C 207.25 283.79 204.50 284.61 204.78 287.03 Z"/><path opacity="1.00" d="M 422.76 292.88 C 426.07 292.08 429.54 290.87 432.94 291.94 C 436.05 292.62 437.99 295.86 437.80 298.93 C 437.87 304.65 437.88 310.37 437.72 316.09 C 436.21 315.75 434.94 315.02 434.88 313.23 C 432.00 316.08 427.76 316.52 423.98 315.62 C 418.64 313.89 418.67 304.92 423.76 302.90 C 427.17 301.13 431.12 301.48 434.83 301.26 C 434.67 298.82 434.70 295.77 432.03 294.67 C 428.87 294.04 425.72 294.96 422.76 295.99 C 422.75 294.95 422.75 293.91 422.76 292.88 M 424.94 305.97 C 423.01 307.25 423.26 309.99 423.86 311.93 C 426.45 314.37 431.06 313.98 433.35 311.31 C 434.91 309.26 434.56 306.52 434.85 304.11 C 431.50 304.17 427.77 303.82 424.94 305.97 Z"/><path opacity="1.00" d="M 447.17 295.87 C 449.34 292.71 453.13 290.64 457.00 291.76 C 459.97 292.30 462.36 294.86 462.61 297.88 C 463.06 303.82 462.76 309.78 462.74 315.73 C 461.71 315.64 460.69 315.56 459.67 315.47 C 459.54 309.55 460.16 303.55 459.27 297.67 C 457.68 292.86 449.80 293.69 448.44 298.31 C 446.75 303.92 447.71 309.88 447.46 315.65 C 446.47 315.62 445.49 315.59 444.52 315.56 C 444.49 307.77 444.72 299.98 444.33 292.19 C 445.13 292.20 446.72 292.21 447.52 292.22 C 447.43 293.13 447.26 294.96 447.17 295.87 Z"/></g></svg>